# xmcd
#
# Track frame offsets: 
#        150
#        25577
#        40198
#        61735
#        75332
#        94954
#        113785
#        128227
#        154200
#        179196
#        201553
#        229660
#        261602
#        275630
#        291935
#        308699
#        333718
#
# Disc length: 4742 seconds
#
# Revision: 0
# Processed by: cddbd v1.5.2PL0 Copyright (c) Steve Scherf et al.
# Submitted via: ExactAudioCopy v1.0b3
#
DISCID=fe128411
DTITLE=Various Artist - Svenska Skratt [CD 4)
DYEAR=2011
DGENRE=Comedy
TTITLE0=Hasse Alfredson, Tage Danielsson, Lissi Alandh, Monica Zetterl
TTITLE0=und - Notan
TTITLE1=Hasse Alfredson and Tage Danielsson - Naturist Näcklas Lindeman
TTITLE2=Hasse Alfredson and Tage Danielsson - Punkrockare Trindeman Lind
TTITLE2=eman
TTITLE3=Hasse Alfredson - Efter Kaffet
TTITLE4=Hasse Alfredson and Tage Danielsson - Elev Nisse Lindeman
TTITLE5=Hasse Alfredson and Tage Danielsson - Fotbollstränare Bob Lindem
TTITLE5=an
TTITLE6=Hasse Alfredson and Tage Danielsson - KDS-are Malte Lindeman
TTITLE7=Hasse Alfredson and Tage Danielsson - Direktör Rutger Lindeman
TTITLE8=Hasse Alfredson and Tage Danielsson - Kaninjägare På Gotland, Ni
TTITLE8=mrod Lindeman
TTITLE9=Hasse Alfredson and Tage Danielsson - Baksmälleexpert Napoleon L
TTITLE9=indeman
TTITLE10=Hasse Alfredson and Tage Danielsson - Öde Ö-Bo Robinson Lindema
TTITLE10=n
TTITLE11=Hasse Alfredson and Tage Danielsson - Stugägare Kenneth Lindema
TTITLE11=n
TTITLE12=Hasse Alfredson, Tage Danielsson, Gunnar Svensson - Stesonhat
TTITLE12=t
TTITLE13=Tage Danielsson - Om Sannolikhet
TTITLE14=Lena Nyman and Martin Ljung - Alltid Blir Jag Så Förbannad
TTITLE15=Hasse Alfredson and Tage Danielsson - Rymdforskare Valfrid Lind
TTITLE15=eman
TTITLE16=Hasse Alfredson and Tage Danielsson - Blåbär Malte Lindeman
EXTD=
EXTT0=
EXTT1=
EXTT2=
EXTT3=
EXTT4=
EXTT5=
EXTT6=
EXTT7=
EXTT8=
EXTT9=
EXTT10=
EXTT11=
EXTT12=
EXTT13=
EXTT14=
EXTT15=
EXTT16=
PLAYORDER=
